<svg width="41" height="40" viewBox="0 0 41 40" fill="none" xmlns="http://www.w3.org/2000/svg">
<g clip-path="url(#clip0_1_52)">
<path d="M17.7015 5.2425C17.5881 5.12879 17.4533 5.03858 17.305 4.97703C17.1566 4.91547 16.9976 4.88379 16.837 4.88379C16.6764 4.88379 16.5174 4.91547 16.369 4.97703C16.2207 5.03858 16.086 5.12879 15.9725 5.2425L1.32064 19.8944C1.20733 20.008 1.11752 20.1428 1.05634 20.2912C0.995167 20.4395 0.963827 20.5984 0.964113 20.7589V37.8528C0.964113 38.1766 1.09275 38.4871 1.32173 38.7161C1.55071 38.9451 1.86128 39.0737 2.18511 39.0737H13.174C13.4979 39.0737 13.8084 38.9451 14.0374 38.7161C14.2664 38.4871 14.395 38.1766 14.395 37.8528V28.0848H19.279V37.8528C19.279 38.1766 19.4076 38.4871 19.6366 38.7161C19.8656 38.9451 20.1762 39.0737 20.5 39.0737H31.4889C31.8127 39.0737 32.1233 38.9451 32.3523 38.7161C32.5813 38.4871 32.7099 38.1766 32.7099 37.8528V20.7589C32.7102 20.5984 32.6789 20.4395 32.6177 20.2912C32.5565 20.1428 32.4667 20.008 32.3534 19.8944L29.0469 16.5904V8.54895C29.0469 8.22512 28.9183 7.91456 28.6893 7.68558C28.4603 7.4566 28.1498 7.32796 27.8259 7.32796H25.384C25.0601 7.32796 24.7496 7.4566 24.5206 7.68558C24.2916 7.91456 24.163 8.22512 24.163 8.54895V11.7064L17.7015 5.2425ZM3.4061 36.6318V21.2644L16.837 7.83345L30.2679 21.2644V36.6318H21.721V26.8638C21.721 26.54 21.5923 26.2294 21.3634 26.0005C21.1344 25.7715 20.8238 25.6428 20.5 25.6428H13.174C12.8502 25.6428 12.5396 25.7715 12.3107 26.0005C12.0817 26.2294 11.953 26.54 11.953 26.8638V36.6318H3.4061Z" fill="#E6E6E6" fill-opacity="0.6"/>
<path d="M25.0273 5.2425C24.9139 5.12879 24.7791 5.03858 24.6308 4.97703C24.4824 4.91547 24.3234 4.88379 24.1628 4.88379C24.0022 4.88379 23.8432 4.91547 23.6948 4.97703C23.5465 5.03858 23.4118 5.12879 23.2984 5.2425L8.64645 19.8944C8.53314 20.008 8.44332 20.1428 8.38215 20.2912C8.32097 20.4395 8.28963 20.5984 8.28992 20.7589V37.8528C8.28992 38.1766 8.41856 38.4871 8.64754 38.7161C8.87652 38.9451 9.18708 39.0737 9.51091 39.0737H20.4998C20.8237 39.0737 21.1342 38.9451 21.3632 38.7161C21.5922 38.4871 21.7208 38.1766 21.7208 37.8528V28.0848H26.6048V37.8528C26.6048 38.1766 26.7334 38.4871 26.9624 38.7161C27.1914 38.9451 27.502 39.0737 27.8258 39.0737H38.8147C39.1385 39.0737 39.4491 38.9451 39.6781 38.7161C39.9071 38.4871 40.0357 38.1766 40.0357 37.8528V20.7589C40.036 20.5984 40.0047 20.4395 39.9435 20.2912C39.8823 20.1428 39.7925 20.008 39.6792 19.8944L36.3727 16.5904V8.54895C36.3727 8.22512 36.2441 7.91456 36.0151 7.68558C35.7861 7.4566 35.4756 7.32796 35.1517 7.32796H32.7098C32.3859 7.32796 32.0754 7.4566 31.8464 7.68558C31.6174 7.91456 31.4888 8.22512 31.4888 8.54895V11.7064L25.0273 5.2425ZM10.7319 36.6318V21.2644L24.1628 7.83345L37.5937 21.2644V36.6318H29.0468V26.8638C29.0468 26.54 28.9181 26.2294 28.6892 26.0005C28.4602 25.7715 28.1496 25.6428 27.8258 25.6428H20.4998C20.176 25.6428 19.8654 25.7715 19.6365 26.0005C19.4075 26.2294 19.2788 26.54 19.2788 26.8638V36.6318H10.7319Z" fill="#B5964D"/>
</g>
<defs>
<clipPath id="clip0_1_52">
<rect width="39.0717" height="39.0717" fill="white" transform="translate(0.964111)"/>
</clipPath>
</defs>
</svg>
